<mxfile host="app.diagrams.net" modified="2023-10-18T13:16:47.619Z" agent="Mozilla/5.0 (Windows NT 10.0; Win64; x64) AppleWebKit/537.36 (KHTML, like Gecko) Chrome/117.0.0.0 Safari/537.36" etag="wC11Av270Y6AFxsSPhk7" version="22.0.4" type="github">
  <diagram name="Page-1" id="O5OJiZE5uKakPps5HQS2">
    <mxGraphModel dx="1050" dy="566" grid="1" gridSize="10" guides="1" tooltips="1" connect="1" arrows="1" fold="1" page="1" pageScale="1" pageWidth="850" pageHeight="1100" math="0" shadow="0">
      <root>
        <mxCell id="0" />
        <mxCell id="1" parent="0" />
        <mxCell id="S0eYHxeHGgmM82dF2VcT-1" value="" style="verticalLabelPosition=bottom;aspect=fixed;html=1;shape=mxgraph.salesforce.web;" parent="1" vertex="1">
          <mxGeometry x="210" y="10" width="60" height="47.400000000000006" as="geometry" />
        </mxCell>
        <mxCell id="S0eYHxeHGgmM82dF2VcT-2" value="www" style="text;html=1;align=center;verticalAlign=middle;resizable=0;points=[];autosize=1;strokeColor=none;fillColor=none;" parent="1" vertex="1">
          <mxGeometry x="210" y="50" width="50" height="30" as="geometry" />
        </mxCell>
        <mxCell id="S0eYHxeHGgmM82dF2VcT-3" value="" style="endArrow=classic;html=1;rounded=0;" parent="1" edge="1">
          <mxGeometry width="50" height="50" relative="1" as="geometry">
            <mxPoint x="250" y="60" as="sourcePoint" />
            <mxPoint x="407" y="140" as="targetPoint" />
            <Array as="points">
              <mxPoint x="407" y="60" />
            </Array>
          </mxGeometry>
        </mxCell>
        <mxCell id="S0eYHxeHGgmM82dF2VcT-5" value="" style="rounded=0;whiteSpace=wrap;html=1;fillColor=#dae8fc;strokeColor=#6c8ebf;" parent="1" vertex="1">
          <mxGeometry x="180" y="140" width="510" height="100" as="geometry" />
        </mxCell>
        <mxCell id="S0eYHxeHGgmM82dF2VcT-6" value="" style="image;aspect=fixed;html=1;points=[];align=center;fontSize=12;image=img/lib/azure2/networking/Application_Gateways.svg;" parent="1" vertex="1">
          <mxGeometry x="436" y="158" width="64" height="64" as="geometry" />
        </mxCell>
        <mxCell id="S0eYHxeHGgmM82dF2VcT-7" value="Tier 1:Gateway Layer" style="text;html=1;align=center;verticalAlign=middle;resizable=0;points=[];autosize=1;strokeColor=none;fillColor=none;" parent="1" vertex="1">
          <mxGeometry x="550" y="140" width="140" height="30" as="geometry" />
        </mxCell>
        <mxCell id="S0eYHxeHGgmM82dF2VcT-8" value="&lt;br&gt;(incoming Traffic)" style="text;html=1;align=center;verticalAlign=middle;resizable=0;points=[];autosize=1;strokeColor=none;fillColor=none;" parent="1" vertex="1">
          <mxGeometry x="400" y="57.4" width="120" height="40" as="geometry" />
        </mxCell>
        <mxCell id="S0eYHxeHGgmM82dF2VcT-9" value="" style="endArrow=classic;html=1;rounded=0;exitX=0.46;exitY=1.02;exitDx=0;exitDy=0;exitPerimeter=0;" parent="1" source="S0eYHxeHGgmM82dF2VcT-5" edge="1">
          <mxGeometry width="50" height="50" relative="1" as="geometry">
            <mxPoint x="400" y="320" as="sourcePoint" />
            <mxPoint x="415" y="300" as="targetPoint" />
          </mxGeometry>
        </mxCell>
        <mxCell id="S0eYHxeHGgmM82dF2VcT-10" value="" style="rounded=0;whiteSpace=wrap;html=1;fillColor=#dae8fc;strokeColor=#6c8ebf;" parent="1" vertex="1">
          <mxGeometry x="180" y="300" width="520" height="110" as="geometry" />
        </mxCell>
        <mxCell id="S0eYHxeHGgmM82dF2VcT-11" value="Tier 2: App Layer" style="text;html=1;align=center;verticalAlign=middle;resizable=0;points=[];autosize=1;strokeColor=none;fillColor=none;" parent="1" vertex="1">
          <mxGeometry x="590" y="300" width="110" height="30" as="geometry" />
        </mxCell>
        <mxCell id="S0eYHxeHGgmM82dF2VcT-12" value="" style="verticalLabelPosition=bottom;html=1;verticalAlign=top;align=center;strokeColor=none;fillColor=#00BEF2;shape=mxgraph.azure.virtual_machine;" parent="1" vertex="1">
          <mxGeometry x="280" y="310" width="50" height="40" as="geometry" />
        </mxCell>
        <mxCell id="S0eYHxeHGgmM82dF2VcT-13" value="" style="verticalLabelPosition=bottom;html=1;verticalAlign=top;align=center;strokeColor=none;fillColor=#00BEF2;shape=mxgraph.azure.virtual_machine;" parent="1" vertex="1">
          <mxGeometry x="391.3" y="310" width="50" height="40" as="geometry" />
        </mxCell>
        <mxCell id="S0eYHxeHGgmM82dF2VcT-14" value="" style="verticalLabelPosition=bottom;html=1;verticalAlign=top;align=center;strokeColor=none;fillColor=#00BEF2;shape=mxgraph.azure.virtual_machine;" parent="1" vertex="1">
          <mxGeometry x="500" y="310" width="50" height="40" as="geometry" />
        </mxCell>
        <mxCell id="S0eYHxeHGgmM82dF2VcT-15" value="" style="endArrow=classic;html=1;rounded=0;exitX=0.46;exitY=1.02;exitDx=0;exitDy=0;exitPerimeter=0;" parent="1" edge="1">
          <mxGeometry width="50" height="50" relative="1" as="geometry">
            <mxPoint x="411.5" y="410" as="sourcePoint" />
            <mxPoint x="411.5" y="468" as="targetPoint" />
          </mxGeometry>
        </mxCell>
        <mxCell id="S0eYHxeHGgmM82dF2VcT-16" value="" style="rounded=0;whiteSpace=wrap;html=1;fillColor=#dae8fc;strokeColor=#6c8ebf;" parent="1" vertex="1">
          <mxGeometry x="180" y="470" width="520" height="100" as="geometry" />
        </mxCell>
        <mxCell id="S0eYHxeHGgmM82dF2VcT-17" value="" style="image;aspect=fixed;html=1;points=[];align=center;fontSize=12;image=img/lib/azure2/databases/Azure_SQL_VM.svg;" parent="1" vertex="1">
          <mxGeometry x="480" y="500" width="53.33" height="50" as="geometry" />
        </mxCell>
        <mxCell id="S0eYHxeHGgmM82dF2VcT-18" value="" style="image;aspect=fixed;html=1;points=[];align=center;fontSize=12;image=img/lib/azure2/databases/Azure_SQL_VM.svg;" parent="1" vertex="1">
          <mxGeometry x="330" y="500" width="53.33" height="50" as="geometry" />
        </mxCell>
        <mxCell id="S0eYHxeHGgmM82dF2VcT-19" value="Tier3: DB Tier" style="text;html=1;align=center;verticalAlign=middle;resizable=0;points=[];autosize=1;strokeColor=none;fillColor=none;" parent="1" vertex="1">
          <mxGeometry x="600" y="470" width="100" height="30" as="geometry" />
        </mxCell>
        <mxCell id="S0eYHxeHGgmM82dF2VcT-20" value="Network Security groups" style="rounded=1;whiteSpace=wrap;html=1;fillColor=#e1d5e7;strokeColor=#9673a6;" parent="1" vertex="1">
          <mxGeometry x="240" y="250" width="100" height="42.6" as="geometry" />
        </mxCell>
        <mxCell id="VbAcZW5J8bakWPC7za3g-1" value="" style="image;aspect=fixed;html=1;points=[];align=center;fontSize=12;image=img/lib/azure2/networking/Web_Application_Firewall_Policies_WAF.svg;" vertex="1" parent="1">
          <mxGeometry x="331.33" y="164" width="52" height="52" as="geometry" />
        </mxCell>
        <mxCell id="VbAcZW5J8bakWPC7za3g-2" value="" style="endArrow=classic;startArrow=classic;html=1;rounded=0;exitX=0.936;exitY=0.5;exitDx=0;exitDy=0;exitPerimeter=0;" edge="1" parent="1" source="VbAcZW5J8bakWPC7za3g-1">
          <mxGeometry width="50" height="50" relative="1" as="geometry">
            <mxPoint x="400" y="320" as="sourcePoint" />
            <mxPoint x="440" y="190" as="targetPoint" />
            <Array as="points" />
          </mxGeometry>
        </mxCell>
        <mxCell id="VbAcZW5J8bakWPC7za3g-3" value="WAF" style="text;html=1;align=center;verticalAlign=middle;resizable=0;points=[];autosize=1;strokeColor=none;fillColor=none;" vertex="1" parent="1">
          <mxGeometry x="300" y="200" width="50" height="30" as="geometry" />
        </mxCell>
        <mxCell id="VbAcZW5J8bakWPC7za3g-7" value="" style="labelPosition=right;align=left;strokeWidth=1;shape=mxgraph.mockup.markup.curlyBrace;html=1;shadow=0;dashed=0;strokeColor=#999999;direction=west;" vertex="1" parent="1">
          <mxGeometry x="310" y="350" width="220" height="20" as="geometry" />
        </mxCell>
        <mxCell id="VbAcZW5J8bakWPC7za3g-8" value="Backend VMs" style="text;html=1;align=center;verticalAlign=middle;resizable=0;points=[];autosize=1;strokeColor=none;fillColor=none;" vertex="1" parent="1">
          <mxGeometry x="370" y="370" width="100" height="30" as="geometry" />
        </mxCell>
      </root>
    </mxGraphModel>
  </diagram>
</mxfile>
